<?xml version="1.0" encoding="UTF-8"?>
<!DOCTYPE svg PUBLIC "-//W3C//DTD SVG 1.1//EN" "http://www.w3.org/Graphics/SVG/1.1/DTD/svg11.dtd">
<svg version="1.1" xmlns="http://www.w3.org/2000/svg" xmlns:xlink="http://www.w3.org/1999/xlink" x="0" y="0" width="16" height="16" viewBox="0, 0, 16, 16">
  <g id="Background">
    <rect x="0" y="0" width="16" height="16" fill="#000000" fill-opacity="0"/>
  </g>
  <g id="Layer_1">
    <path d="M8.818,0.021 C12.992,0.627 15.788,3.793 16,7.979 C16,12.398 12.418,15.979 8,15.979 C3.582,15.979 0,12.398 0,7.979 C0.073,3.454 3.594,0.202 8,-0.021 L8.818,0.021 z M8.006,3.499 C7.574,3.499 7.162,3.581 6.775,3.746 C6.388,3.911 6.051,4.138 5.764,4.424 C5.476,4.713 5.249,5.05 5.085,5.436 C4.92,5.823 4.838,6.236 4.838,6.673 C4.838,6.983 4.883,7.278 4.976,7.558 C5.067,7.84 5.19,8.107 5.344,8.361 L7.48,12.078 C7.626,12.333 7.798,12.459 8.001,12.459 C8.202,12.459 8.379,12.333 8.533,12.078 L10.658,8.371 C10.812,8.118 10.934,7.85 11.026,7.568 C11.117,7.285 11.162,6.987 11.162,6.673 C11.162,6.236 11.08,5.823 10.915,5.436 C10.753,5.05 10.526,4.713 10.241,4.424 C9.955,4.138 9.621,3.911 9.237,3.746 C8.855,3.581 8.444,3.499 8.006,3.499 z M8.006,5.097 C8.224,5.097 8.426,5.138 8.618,5.218 C8.81,5.298 8.974,5.412 9.116,5.557 C9.258,5.703 9.369,5.872 9.449,6.064 C9.531,6.256 9.57,6.46 9.57,6.673 C9.57,6.886 9.531,7.088 9.449,7.278 C9.369,7.47 9.258,7.636 9.116,7.778 C8.974,7.919 8.807,8.03 8.615,8.11 C8.422,8.192 8.219,8.232 8.006,8.232 C7.786,8.232 7.583,8.192 7.395,8.11 C7.207,8.03 7.042,7.919 6.897,7.778 C6.75,7.636 6.638,7.47 6.557,7.278 C6.476,7.088 6.436,6.886 6.436,6.673 C6.436,6.455 6.476,6.253 6.557,6.062 C6.638,5.871 6.75,5.703 6.897,5.557 C7.042,5.412 7.207,5.298 7.395,5.218 C7.583,5.138 7.786,5.097 8.006,5.097 z" fill="#000000"/>
  </g>
</svg>
