<?xml version="1.0" encoding="UTF-8"?>
<!DOCTYPE svg PUBLIC "-//W3C//DTD SVG 1.1//EN" "http://www.w3.org/Graphics/SVG/1.1/DTD/svg11.dtd">
<svg version="1.1" xmlns="http://www.w3.org/2000/svg" xmlns:xlink="http://www.w3.org/1999/xlink" x="0" y="0" width="16" height="16" viewBox="0, 0, 16, 16">
  <g id="Background">
    <rect x="0" y="0" width="16" height="16" fill="#000000" fill-opacity="0"/>
  </g>
  <g id="Layer_1">
    <path d="M8,0 C12.418,0 16,3.582 16,8 C16,12.418 12.418,16 8,16 C3.582,16 0,12.418 0,8 C0,3.582 3.582,0 8,0 z M5.194,6.052 L3.056,6.052 L3.056,12.93 L5.194,12.93 L5.194,6.052 z M10.539,5.898 C9.385,5.898 8.696,6.558 8.414,7.008 L8.373,7.008 L8.274,6.052 L6.418,6.052 C6.446,6.671 6.474,7.388 6.474,8.246 L6.474,12.93 L8.611,12.93 L8.611,8.963 C8.611,8.766 8.626,8.57 8.682,8.429 C8.837,8.035 9.188,7.627 9.779,7.627 C10.553,7.627 10.862,8.232 10.862,9.118 L10.862,12.93 L13,12.93 L13,8.865 C13,6.84 11.946,5.898 10.539,5.898 z M4.139,3.07 C3.45,3.07 3,3.534 3,4.139 C3,4.73 3.436,5.208 4.111,5.208 C4.829,5.208 5.264,4.73 5.264,4.139 C5.25,3.534 4.829,3.07 4.139,3.07 z" fill="#000000"/>
  </g>
</svg>
