<?xml version="1.0" encoding="UTF-8"?>
<!DOCTYPE svg PUBLIC "-//W3C//DTD SVG 1.1//EN" "http://www.w3.org/Graphics/SVG/1.1/DTD/svg11.dtd">
<svg version="1.1" xmlns="http://www.w3.org/2000/svg" xmlns:xlink="http://www.w3.org/1999/xlink" x="0" y="0" width="16" height="16" viewBox="0, 0, 16, 16">
  <g id="Background">
    <rect x="0" y="0" width="16" height="16" fill="#000000" fill-opacity="0"/>
  </g>
  <g id="Layer_1">
    <path d="M8,0 C12.418,0 16,3.582 16,8 C16,12.418 12.418,16 8,16 C3.582,16 0,12.418 0,8 C0,3.582 3.582,0 8,0 z M4.533,3.138 C3.424,3.735 3.872,3.378 3.134,4.134 C2.408,4.86 3.095,7.562 5.766,10.234 C8.438,12.905 11.141,13.592 11.866,12.866 C12.494,12.238 13.592,11.472 12.162,10.323 C10.733,9.174 10.333,9.738 9.684,10.387 C9.231,10.84 8.085,9.894 7.095,8.905 C6.106,7.915 5.16,6.769 5.613,6.316 C6.262,5.667 6.826,5.267 5.677,3.838 C5.082,3.228 5.448,3.484 4.533,3.138 z" fill="#000000"/>
  </g>
</svg>
