<?xml version="1.0" encoding="UTF-8"?>
<!DOCTYPE svg PUBLIC "-//W3C//DTD SVG 1.1//EN" "http://www.w3.org/Graphics/SVG/1.1/DTD/svg11.dtd">
<svg version="1.1" xmlns="http://www.w3.org/2000/svg" xmlns:xlink="http://www.w3.org/1999/xlink" x="0" y="0" width="16" height="16" viewBox="0, 0, 16, 16">
  <g id="Background">
    <rect x="0" y="0" width="16" height="16" fill="#000000" fill-opacity="0"/>
  </g>
  <g id="Layer_1">
    <path d="M8,0 C12.418,0 16,3.582 16,8 C16,12.418 12.418,16 8,16 C3.582,16 0,12.418 0,8 C0,3.582 3.582,0 8,0 z M9.922,3.878 C8.787,3.878 7.873,4.798 7.873,5.928 C7.873,6.086 7.892,6.245 7.924,6.397 C6.223,6.308 4.707,5.496 3.698,4.253 C3.52,4.557 3.419,4.906 3.419,5.287 C3.419,5.997 3.78,6.626 4.332,6.994 C3.996,6.981 3.679,6.886 3.406,6.733 L3.406,6.759 C3.406,7.755 4.11,8.58 5.049,8.77 C4.878,8.815 4.694,8.84 4.51,8.84 C4.377,8.84 4.25,8.827 4.123,8.808 C4.383,9.621 5.138,10.211 6.039,10.23 C5.335,10.782 4.453,11.105 3.495,11.105 C3.324,11.105 3.165,11.099 3,11.08 C3.907,11.664 4.986,12 6.147,12 C9.916,12 11.978,8.878 11.978,6.169 C11.978,6.08 11.978,5.991 11.972,5.902 C12.372,5.61 12.721,5.249 13,4.843 C12.632,5.001 12.232,5.115 11.82,5.16 C12.245,4.906 12.569,4.506 12.721,4.03 C12.327,4.265 11.883,4.437 11.42,4.525 C11.046,4.126 10.513,3.878 9.922,3.878 z" fill="#000000"/>
  </g>
</svg>
