<?xml version="1.0" encoding="UTF-8"?>
<!DOCTYPE svg PUBLIC "-//W3C//DTD SVG 1.1//EN" "http://www.w3.org/Graphics/SVG/1.1/DTD/svg11.dtd">
<svg version="1.1" xmlns="http://www.w3.org/2000/svg" xmlns:xlink="http://www.w3.org/1999/xlink" x="0" y="0" width="16" height="16" viewBox="0, 0, 16, 16">
  <g id="Background">
    <rect x="0" y="0" width="16" height="16" fill="#000000" fill-opacity="0"/>
  </g>
  <g id="Layer_1">
    <path d="M8,-0.032 C3.582,-0.032 0,3.55 0,7.968 C0,11.503 2.293,14.502 5.471,15.559 C5.871,15.633 6.018,15.386 6.018,15.174 C6.018,14.983 6.01,14.353 6.007,13.684 C3.781,14.168 3.311,12.74 3.311,12.74 C2.947,11.816 2.423,11.57 2.423,11.57 C1.698,11.074 2.478,11.083 2.478,11.083 C3.282,11.14 3.705,11.908 3.705,11.908 C4.418,13.131 5.576,12.778 6.033,12.573 C6.104,12.056 6.311,11.703 6.541,11.503 C4.763,11.301 2.895,10.615 2.895,7.55 C2.895,6.676 3.208,5.963 3.72,5.402 C3.637,5.2 3.363,4.387 3.798,3.285 C3.798,3.285 4.47,3.07 5.998,4.105 C6.636,3.927 7.321,3.839 8.001,3.835 C8.68,3.839 9.365,3.927 10.005,4.105 C11.531,3.07 12.202,3.285 12.202,3.285 C12.638,4.387 12.363,5.2 12.281,5.402 C12.794,5.962 13.104,6.676 13.104,7.55 C13.104,10.622 11.233,11.299 9.451,11.497 C9.738,11.746 9.994,12.232 9.994,12.979 C9.994,14.049 9.984,14.911 9.984,15.174 C9.984,15.387 10.128,15.636 10.534,15.558 C13.71,14.499 16,11.502 16,7.968 C16,3.55 12.418,-0.032 8,-0.032 z" fill="#000000"/>
  </g>
</svg>
