<?xml version="1.0" encoding="UTF-8"?>
<!DOCTYPE svg PUBLIC "-//W3C//DTD SVG 1.1//EN" "http://www.w3.org/Graphics/SVG/1.1/DTD/svg11.dtd">
<svg version="1.1" xmlns="http://www.w3.org/2000/svg" xmlns:xlink="http://www.w3.org/1999/xlink" x="0" y="0" width="16" height="16" viewBox="0, 0, 16, 16">
  <g id="Background">
    <rect x="0" y="0" width="16" height="16" fill="#000000" fill-opacity="0"/>
  </g>
  <g id="Layer_1">
    <path d="M8,0 C12.418,0 16,3.582 16,8 C16,12.418 12.418,16 8,16 C3.582,16 0,12.418 0,8 C0,3.582 3.582,0 8,0 z M7.781,6.289 C6.083,6.68 6.81,6.32 5.555,7.272 L3.693,9.12 C3.246,9.564 3,10.154 3,10.782 C3,11.41 3.246,12 3.693,12.443 C4.153,12.9 4.757,13.128 5.361,13.128 C5.965,13.128 6.57,12.9 7.03,12.443 L7.535,11.941 C7.778,11.699 7.78,11.307 7.538,11.064 C7.298,10.822 6.905,10.82 6.662,11.062 L6.156,11.564 C5.718,11.998 5.004,11.999 4.566,11.564 C4.355,11.354 4.239,11.077 4.239,10.782 C4.239,10.486 4.355,10.209 4.566,10 L6.428,8.152 C6.814,7.769 7.541,7.206 8.07,7.73 C8.313,7.971 8.705,7.97 8.946,7.727 C9.187,7.484 9.186,7.092 8.942,6.851 C8.365,6.388 8.73,6.615 7.781,6.289 z M9.838,3.27 L9.095,3.76 L8.464,4.386 C8.222,4.627 8.22,5.019 8.461,5.262 C8.702,5.505 9.094,5.506 9.338,5.266 L9.968,4.639 C10.431,4.179 11.038,4.37 11.434,4.762 C11.645,4.972 11.761,5.25 11.761,5.545 C11.761,5.84 11.645,6.118 11.434,6.327 L9.446,8.298 C8.538,9.2 8.112,8.777 7.93,8.596 C7.687,8.355 7.295,8.357 7.054,8.599 C6.813,8.842 6.814,9.234 7.057,9.476 C7.474,9.89 7.95,10.095 8.45,10.095 C9.06,10.095 9.706,9.787 10.32,9.178 L12.306,7.206 C12.754,6.763 13,6.173 13,5.545 C13,4.917 12.754,4.327 12.306,3.883 C11.062,3.012 11.842,3.346 9.838,3.27 z" fill="#000000"/>
  </g>
</svg>
